<svg id="Capa_1" data-name="Capa 1" xmlns="http://www.w3.org/2000/svg" viewBox="0 0 499.33 499.22"><defs><style>.cls-1{fill:#fff;}</style></defs><path class="cls-1" d="M250.39,122.34a128,128,0,1,0,128,128A127.8,127.8,0,0,0,250.39,122.34Zm0,211.21a83.22,83.22,0,1,1,83.21-83.22,83.37,83.37,0,0,1-83.21,83.22ZM413.47,117.1a29.86,29.86,0,1,1-29.85-29.85A29.78,29.78,0,0,1,413.47,117.1Zm84.78,30.3c-1.9-40-11-75.41-40.33-104.6S393.31,4.48,353.32,2.48c-41.22-2.34-164.76-2.34-206,0C107.47,4.37,72,13.51,42.75,42.69S4.43,107.3,2.42,147.29c-2.34,41.22-2.34,164.76,0,206,1.89,40,11,75.42,40.33,104.6s64.61,38.32,104.6,40.33c41.21,2.34,164.75,2.34,206,0,40-1.89,75.41-11,104.6-40.33s38.32-64.61,40.33-104.6c2.33-41.21,2.33-164.64,0-205.86ZM445,397.49a84.25,84.25,0,0,1-47.46,47.45c-32.86,13-110.84,10-147.15,10s-114.4,2.89-147.16-10a84.26,84.26,0,0,1-47.45-47.45c-13-32.86-10-110.84-10-147.16s-2.89-114.4,10-147.15a84.27,84.27,0,0,1,47.45-47.46c32.87-13,110.84-10,147.16-10s114.4-2.9,147.15,10A84.23,84.23,0,0,1,445,103.18C458,136,455,214,455,250.33S458,364.74,445,397.49Z" transform="translate(-0.67 -0.72)"/></svg>